<svg width="217" height="41" viewBox="0 0 302 126" fill="none" xmlns="http://www.w3.org/2000/svg">
    <line x1="52.5209" y1="28.1976" x2="91.5209" y2="77.1976" stroke="#f2f2f2" stroke-width="9" />
    <line x1="17.7121" y1="93.6882" x2="94.7121" y2="70.6882" stroke="#f2f2f2" stroke-width="9" />
    <line x1="145.537" y1="112.766" x2="93.5374" y2="78.7664" stroke="#f2f2f2" stroke-width="9" />
    <line x1="170.763" y1="22.5521" x2="98.7627" y2="78.5521" stroke="#f2f2f2" stroke-width="9" />
    <circle cx="96.5" cy="75.5" r="23" fill="#262626" stroke="#f2f2f2" stroke-width="9" />
    <circle cx="103.5" cy="26.5" r="15.5" fill="#47BDFF" />
    <circle cx="53" cy="26" r="14" fill="#f2f2f2" />
    <circle cx="146" cy="112" r="14" fill="#f2f2f2" />
    <circle cx="19.5" cy="92.5" r="19.5" fill="#f2f2f2" />
    <circle cx="167.5" cy="19.5" r="19.5" fill="#f2f2f2" />
    <path
        d="M197.91 86.635V89H184.6V73.875H169.31V89H156V86.635H160.73V50.555H169.31V66.615H184.6V50.555H193.18V86.635H197.91ZM202.625 86.635V50.555H217.2C223.176 50.555 227.43 51.5633 229.96 53.58C232.526 55.5967 233.81 58.8417 233.81 63.315C233.81 69.475 231.371 73.4533 226.495 75.25L234.525 86.635H239.695V89H225.67L217.145 76.735H211.205V89H197.29V86.635H202.625ZM217.475 69.31C220.408 69.31 222.406 68.8333 223.47 67.88C224.533 66.9267 225.065 65.4233 225.065 63.37C225.065 61.28 224.515 59.85 223.415 59.08C222.315 58.31 220.39 57.925 217.64 57.925H211.205V69.31H217.475ZM255.895 86.635V89H237.855V86.635H242.585V50.555H251.165V86.635H255.895ZM290.992 86.635V89H255.902V86.635H263.382C261.366 85.6083 259.532 84.2883 257.882 82.675L262.997 76.405C267.141 80.035 270.972 81.85 274.492 81.85C276.069 81.85 277.297 81.52 278.177 80.86C279.094 80.1633 279.552 79.2467 279.552 78.11C279.552 76.9367 279.076 76.02 278.122 75.36C277.169 74.6633 275.281 73.9667 272.457 73.27C267.984 72.2067 264.702 70.8317 262.612 69.145C260.559 67.4217 259.532 64.745 259.532 61.115C259.532 57.4483 260.834 54.625 263.437 52.645C266.077 50.665 269.359 49.675 273.282 49.675C275.849 49.675 278.416 50.115 280.982 50.995C283.549 51.875 285.786 53.1217 287.692 54.735L283.347 61.005C280.011 58.475 276.564 57.21 273.007 57.21C271.577 57.21 270.441 57.5583 269.597 58.255C268.791 58.915 268.387 59.8133 268.387 60.95C268.387 62.05 268.882 62.93 269.872 63.59C270.899 64.25 273.227 65.0383 276.857 65.955C280.524 66.835 283.366 68.1733 285.382 69.97C287.399 71.7667 288.407 74.26 288.407 77.45C288.407 81.41 286.922 84.4717 283.952 86.635H290.992Z"
        fill="#f2f2f2"
    />
</svg>